<?xml version="1.0" encoding="UTF-8"?>
<svg version="1.1" xmlns="http://www.w3.org/2000/svg" width="500" height="500">
<path d="M0 0 C0.85482922 -0.00322445 1.70965844 -0.00644889 2.59039158 -0.00977105 C3.99188571 -0.00744815 3.99188571 -0.00744815 5.42169285 -0.00507832 C6.91610782 -0.00847665 6.91610782 -0.00847665 8.44071299 -0.01194364 C11.78859708 -0.01828822 15.13644073 -0.01745398 18.48433018 -0.01662922 C20.88071845 -0.0196204 23.27710624 -0.02302283 25.67349339 -0.02680683 C31.51268941 -0.03473506 37.35187591 -0.03786163 43.19107621 -0.03841921 C47.93683989 -0.03889435 52.68260023 -0.04094898 57.42836285 -0.04411983 C70.88176056 -0.0529258 84.33515029 -0.05753924 97.78855091 -0.05678936 C98.5138026 -0.0567494 99.23905429 -0.05670945 99.9862833 -0.05666828 C100.71241975 -0.0566274 101.43855619 -0.05658652 102.18669678 -0.0565444 C113.95862306 -0.05613782 125.73051738 -0.06571049 137.50243443 -0.07980665 C149.58807011 -0.09416438 161.67369019 -0.10107718 173.75933462 -0.10021287 C180.54521762 -0.09988072 187.33106709 -0.10263582 194.11694241 -0.11339092 C200.49692434 -0.12304911 206.87683533 -0.12316676 213.25681973 -0.11587429 C215.60099484 -0.11482565 217.94517432 -0.11720779 220.28934193 -0.12323475 C223.48417794 -0.13091811 226.6787667 -0.12633408 229.87359715 -0.11860371 C230.80569584 -0.12374727 231.73779454 -0.12889083 232.69813865 -0.13419026 C238.89715078 -0.10094235 242.80820727 0.33811496 247.48433018 4.73800945 C250.26972277 8.34509661 250.41967645 11.94795749 250.34004307 16.37863445 C250.34245502 17.15497234 250.34486698 17.93131023 250.34735203 18.73117352 C250.34637686 20.36501478 250.33306221 21.99889045 250.30806065 23.6325407 C250.27372869 26.12197287 250.28742121 28.60785421 250.30683994 31.09738445 C250.29994092 32.69114944 250.29026801 34.28490533 250.27754307 35.87863445 C250.28250294 36.61630047 250.28746281 37.35396648 250.29257298 38.11398602 C250.17648597 43.25208195 249.03614001 46.2271833 245.71113682 50.12863445 C241.06853083 53.89237438 236.55688877 53.55300161 230.85582066 53.51631451 C229.85601716 53.52170004 228.85621367 53.52708558 227.8261131 53.53263432 C224.47207044 53.54695492 221.11842016 53.53979989 217.76435947 53.53268719 C215.36121394 53.53838862 212.95807113 53.545352 210.55493259 53.55348492 C204.7024745 53.56958991 198.85011554 53.57151162 192.99764706 53.56627201 C188.23999649 53.5622298 183.48237764 53.56367447 178.72472858 53.56902027 C178.04746359 53.56976869 177.3701986 53.57051712 176.67241042 53.57128822 C175.2965132 53.57281971 173.92061599 53.57435805 172.54471879 53.57590318 C159.64212369 53.58963066 146.73958924 53.58418905 133.83699553 53.57271797 C122.03733796 53.56278765 110.23783725 53.57572228 98.43820389 53.59965216 C86.31861247 53.62404547 74.1990941 53.63365033 62.07947862 53.62699944 C55.27674669 53.62350742 48.47413536 53.62573793 41.671422 53.64325047 C35.27413008 53.65951512 28.87706389 53.6547871 22.47977734 53.63594532 C20.13160542 53.63225351 17.7834114 53.63538504 15.43525982 53.64583111 C12.22996626 53.65900173 9.02567075 53.64752732 5.82042027 53.6298399 C4.89093842 53.6394449 3.96145658 53.64904991 3.00380862 53.65894598 C-2.93609554 53.59149613 -6.41173312 52.57243479 -11.28886318 49.12863445 C-14.66080762 45.14995548 -14.74290064 41.21574303 -14.72245693 36.1950407 C-14.72769878 35.43948391 -14.73294064 34.68392712 -14.73834133 33.90547466 C-14.74474389 32.31280015 -14.74344743 30.72007824 -14.7349081 29.12741375 C-14.72640068 26.70182642 -14.75517552 24.27859866 -14.78691006 21.85324383 C-14.78852247 20.30051015 -14.78794377 18.74777234 -14.78495693 17.1950407 C-14.79619091 16.47611141 -14.80742489 15.75718212 -14.81899929 15.01646709 C-14.73515084 8.90156138 -12.52681325 5.36658452 -8.28886318 1.12863445 C-5.49295692 0.19970962 -2.93270595 0.00280314 0 0 Z " fill="#0CA5DA" transform="translate(140.28886318206787,192.87136554718018)"/>
<path d="M0 0 C0.94348818 -0.00694553 1.88697637 -0.01389106 2.8590551 -0.02104706 C6.01663471 -0.03932531 9.1734637 -0.02905021 12.33106995 -0.01878357 C14.59643618 -0.0258416 16.8617977 -0.03458612 19.12715149 -0.04489136 C25.27797365 -0.06740786 31.42853877 -0.06444022 37.57938647 -0.05556989 C42.71373369 -0.05046263 47.8480325 -0.05775045 52.98237473 -0.06504196 C65.78680341 -0.08302057 78.59105354 -0.07662297 91.39547069 -0.05887216 C102.50965426 -0.04417693 113.62356744 -0.05880202 124.73771619 -0.08764232 C136.15675732 -0.11705254 147.57562722 -0.1274959 158.99471337 -0.11846012 C165.4028699 -0.11352834 171.81081626 -0.11576044 178.21894646 -0.13624763 C184.24453979 -0.15458934 190.2696303 -0.14866383 196.29519653 -0.12404823 C198.50629996 -0.1190357 200.71744159 -0.12254147 202.92851448 -0.13519669 C205.94787657 -0.15111072 208.96557957 -0.13619087 211.98486328 -0.11352539 C213.29635295 -0.13127898 213.29635295 -0.13127898 214.63433737 -0.14939123 C220.53567376 -0.05943359 224.29685766 1.34980172 228.55592346 5.5146637 C232.62835628 11.60976593 232.07907401 18.14997989 232.05690002 25.19972229 C232.05592881 27.37766801 232.09757411 29.55207036 232.14186096 31.72950745 C232.2018927 38.43632217 232.17969881 44.32691486 228.21803284 50.03858948 C222.96223473 54.70612111 217.79515114 54.94659887 211.13635254 54.89561462 C209.72512889 54.90263458 209.72512889 54.90263458 208.28539568 54.90979636 C205.13706502 54.92174972 201.98916936 54.91228765 198.84083557 54.90284729 C196.58207953 54.9069128 194.32332548 54.91225456 192.0645752 54.91877747 C185.93250937 54.93245842 179.8005949 54.92714931 173.66852641 54.91764021 C167.25399919 54.91004864 160.839485 54.91708774 154.42495728 54.92179871 C142.96368274 54.92760702 131.50249211 54.91828097 120.04123176 54.90302069 C109.65083121 54.88961457 99.26053119 54.89194865 88.87013245 54.90577698 C76.80004238 54.92183327 64.73002825 54.9278069 52.65992361 54.91894019 C46.27200599 54.91425983 39.88415762 54.91364892 33.49624443 54.92354965 C27.49210389 54.93220551 21.48815354 54.9262225 15.48403358 54.90886688 C13.27854097 54.90489486 11.07303238 54.90604827 8.86754608 54.91265488 C5.86098372 54.92083189 2.8550339 54.91059504 -0.15148926 54.89561462 C-1.02775044 54.90230679 -1.90401162 54.90899895 -2.80682617 54.91589391 C-7.52165573 54.87021196 -10.6106596 54.5599511 -14.44407654 51.5146637 C-18.80597966 46.5469407 -19.61544659 43.56534127 -19.68235779 37.0927887 C-19.69042953 36.35518311 -19.69850128 35.61757751 -19.70681763 34.85762024 C-19.72065705 33.29410653 -19.73137985 31.73056263 -19.73924255 30.16700745 C-19.7564117 27.78750925 -19.80029041 25.40941677 -19.84446716 23.0302887 C-19.85459837 21.50946556 -19.86311313 19.98863062 -19.86985779 18.4677887 C-19.88736588 17.76132202 -19.90487396 17.05485535 -19.9229126 16.32698059 C-19.9007526 11.22324016 -18.74042366 8.37885022 -15.44407654 4.5146637 C-10.29955604 0.2085294 -6.41226445 -0.06028355 0 0 Z " fill="#11A7DB" transform="translate(145.44407653808594,260.48533630371094)"/>
<path d="M0 0 C0.93754692 -0.00297112 1.87509385 -0.00594224 2.84105128 -0.0090034 C5.99623124 -0.01770501 9.15137331 -0.01919988 12.30656433 -0.02069092 C14.5632536 -0.02531804 16.81994208 -0.03034255 19.07662964 -0.03573608 C25.21715459 -0.04887188 31.35766861 -0.05530729 37.49820542 -0.05974674 C41.33239976 -0.06267543 45.16659109 -0.06677983 49.00078392 -0.07125092 C59.6166118 -0.08336097 70.23243706 -0.09374274 80.84827137 -0.09712601 C81.52770722 -0.09734557 82.20714308 -0.09756514 82.90716789 -0.09779136 C83.58822887 -0.09800964 84.26928986 -0.09822791 84.97098905 -0.09845281 C86.35107664 -0.09889627 87.73116424 -0.09934284 89.11125183 -0.09979248 C89.79582286 -0.10001391 90.48039389 -0.10023534 91.1857095 -0.10046348 C102.27805514 -0.10441144 113.37033508 -0.1218655 124.46265534 -0.145152 C135.85104925 -0.16886708 147.2393991 -0.18106995 158.6278221 -0.18249393 C165.02197823 -0.1835433 171.41604171 -0.18947932 177.81017494 -0.20731354 C183.82410729 -0.22376071 189.83787702 -0.22596599 195.85182381 -0.21717453 C198.06012659 -0.21640237 200.268438 -0.22077031 202.4767189 -0.23063278 C205.48963841 -0.24330058 208.50197743 -0.2375034 211.51489258 -0.22705078 C212.39028728 -0.23510719 213.26568198 -0.24316359 214.16760379 -0.25146413 C219.17614421 -0.21078074 222.60759883 0.36585802 226.94792175 3.14044189 C232.85249249 9.52376161 232.19715341 15.95905971 232.24308777 24.17193604 C232.2545726 25.6004225 232.27496911 27.02886723 232.30461121 28.45709229 C232.64777579 45.0037602 232.64777579 45.0037602 227.94792175 50.14044189 C222.76477219 54.42658119 218.92709267 54.71377932 212.49711609 54.64837646 C211.55292234 54.65461643 210.60872859 54.66085639 209.63592291 54.66728544 C206.4759957 54.68322447 203.31683889 54.67060732 200.15690613 54.65802002 C197.88991852 54.66344071 195.62293444 54.67056307 193.35595703 54.67926025 C187.2010593 54.69750259 181.04642962 54.69042213 174.89152718 54.67774391 C168.45210672 54.66762107 162.01270931 54.67700761 155.57328796 54.68328857 C144.06635512 54.69103333 132.55955939 54.67859804 121.05264801 54.65825123 C110.62331033 54.64038061 100.19415075 54.64348485 89.76481628 54.66192627 C77.64818621 54.68334123 65.5316959 54.69129571 53.41504335 54.67947721 C47.00304163 54.67323916 40.59116256 54.67241538 34.1791687 54.68562317 C28.1511685 54.69717251 22.12350483 54.68917222 16.095541 54.66604614 C13.88240811 54.66075422 11.66924692 54.66228103 9.45612526 54.6710968 C6.43660947 54.68201639 3.41817423 54.6683313 0.39872742 54.64837646 C-0.47851187 54.65729935 -1.35575116 54.66622224 -2.25957346 54.67541552 C-7.673545 54.60594528 -10.75664834 53.73826602 -15.05207825 50.14044189 C-18.85609267 45.65675568 -19.67817955 41.91154506 -19.688797 36.17950439 C-19.69973892 35.4301059 -19.71068085 34.6807074 -19.72195435 33.90859985 C-19.73775059 32.33035115 -19.74303572 30.75196584 -19.73835754 29.17364502 C-19.73957218 26.77741382 -19.7993708 24.38730028 -19.86262512 21.99200439 C-20.00851976 9.19572478 -20.00851976 9.19572478 -15.6966095 4.10137939 C-10.96884565 -0.34040324 -6.18437123 -0.00607497 0 0 Z " fill="#0BA5DA" transform="translate(145.0520782470703,123.85955810546875)"/>
<path d="M0 0 C1.30811646 -0.0071553 2.61623291 -0.01431061 3.96398926 -0.02168274 C7.53643828 -0.04013517 11.10813721 -0.02729885 14.68055463 -0.00759244 C18.42668801 0.00884344 22.17277574 -0.00002552 25.91893005 -0.00511169 C32.20763067 -0.00962662 38.49603327 0.00620094 44.78466797 0.03417969 C52.04721691 0.06624306 59.3092289 0.06620865 66.57181603 0.04896492 C73.57017702 0.03308316 80.56834182 0.03984301 87.56669426 0.05690193 C90.53987817 0.06376058 93.51290426 0.06275232 96.48608589 0.05535698 C100.6394632 0.04624995 104.79201563 0.07026494 108.9453125 0.09765625 C110.7899836 0.08786743 110.7899836 0.08786743 112.67192078 0.07788086 C119.00822082 0.14897693 123.1577848 0.23649137 127.90795898 4.63110352 C132.44751435 11.20563197 132.12722967 16.95617737 132.14819336 24.69702148 C132.15786033 26.85903972 132.18886392 29.02009128 132.22045898 31.18188477 C132.22699328 32.56599372 132.23224208 33.95010947 132.23608398 35.33422852 C132.25010254 37.21609863 132.25010254 37.21609863 132.2644043 39.13598633 C131.75553093 44.12573368 129.89297329 47.17641367 127.12297058 51.26721191 C122.01874661 55.02017883 116.8531075 54.34369818 110.67578125 54.30981445 C109.31532153 54.31986967 107.95487591 54.33201867 106.5944519 54.34609985 C102.90626172 54.37740219 99.21872453 54.37683466 95.53043485 54.36859417 C92.44889254 54.3644308 89.36747804 54.3754118 86.28595775 54.38623834 C79.01491604 54.4113704 71.74419936 54.41026071 64.47314453 54.39282227 C56.97750119 54.37530027 49.48292154 54.4016899 41.98743588 54.44978881 C35.54645713 54.48958218 29.10581402 54.50219688 22.66471905 54.49307466 C18.82012116 54.48789464 14.97623692 54.49292 11.13174629 54.52404022 C7.51559229 54.55211672 3.90104614 54.54616553 0.28493881 54.51432419 C-1.67005389 54.50540265 -3.62510925 54.53094668 -5.5799408 54.55758667 C-13.98784753 54.43657057 -13.98784753 54.43657057 -17.21193123 52.08472443 C-21.52846202 47.16607272 -22.25036794 43.35523255 -22.26000977 36.92016602 C-22.26333817 36.15562103 -22.26666656 35.39107605 -22.27009583 34.60336304 C-22.27516224 32.98436078 -22.27750424 31.36534807 -22.27734375 29.74633789 C-22.27952624 27.27285459 -22.2976735 24.79982013 -22.31665039 22.32641602 C-22.3195852 20.75350087 -22.32156941 19.18058361 -22.32250977 17.60766602 C-22.32969528 16.86900299 -22.3368808 16.13033997 -22.34428406 15.36929321 C-22.31366547 8.46292195 -22.31366547 8.46292195 -20.09204102 5.63110352 C-13.80201822 -0.21222997 -8.34272762 -0.07944966 0 0 Z " fill="#0BA5DA" transform="translate(148.092041015625,329.368896484375)"/>
<path d="M0 0 C0.93951476 -0.00226556 1.87902952 -0.00453111 2.84701443 -0.00686532 C6.01463974 -0.01322675 9.1822225 -0.01237459 12.34985352 -0.0115509 C14.61288509 -0.01454102 16.87591615 -0.01794321 19.13894653 -0.02172852 C25.29992565 -0.03058682 31.46089089 -0.03290737 37.62187576 -0.0335443 C42.75647727 -0.03449175 47.89107552 -0.03816807 53.02567577 -0.0417164 C64.4411364 -0.04940156 75.85658795 -0.05238439 87.2720505 -0.05171105 C87.95740323 -0.05167109 88.64275596 -0.05163113 89.34887695 -0.05158997 C90.03506273 -0.05154909 90.7212485 -0.0515082 91.42822778 -0.05146609 C102.55565606 -0.0510594 113.68305054 -0.0606341 124.81046903 -0.07472833 C136.22593155 -0.08907378 147.64137072 -0.09581617 159.05684376 -0.09513456 C165.46986719 -0.09487888 171.88285236 -0.09776823 178.29586792 -0.10831261 C184.32370253 -0.11795265 190.35146199 -0.11810109 196.37929916 -0.11079597 C198.59734074 -0.10974507 200.81538689 -0.11214272 203.03342056 -0.11815643 C206.04987694 -0.12580813 209.06606934 -0.12127723 212.08251953 -0.11352539 C212.97024772 -0.11866895 213.8579759 -0.12381252 214.77260494 -0.12911195 C220.81298843 -0.09455856 220.81298843 -0.09455856 223.04125977 2.13371277 C221.15152822 4.02344432 218.3906757 3.26204901 215.87551314 3.27211827 C214.98098116 3.27056967 214.08644919 3.26902107 213.16481018 3.26742554 C212.22206629 3.26969109 211.2793224 3.27195665 210.30801052 3.27429086 C207.12345968 3.2806619 203.93895107 3.27979952 200.75439453 3.27897644 C198.48165837 3.28196599 196.20892272 3.28536804 193.93618774 3.28915405 C187.74415868 3.29801882 181.55214341 3.3003332 175.36010861 3.30096984 C170.20070401 3.30191681 165.04130266 3.30559264 159.8818993 3.30914193 C148.4110729 3.31682948 136.94025554 3.3198097 125.46942724 3.31913658 C124.78052211 3.31909663 124.09161698 3.31905667 123.38183594 3.3190155 C122.69209405 3.31897462 122.00235216 3.31893374 121.291709 3.31889162 C110.10925174 3.31848503 98.92682813 3.32805678 87.7443806 3.34215387 C76.27470916 3.35649947 64.80506097 3.36324169 53.33537906 3.36256009 C46.89104168 3.3623044 40.44674235 3.36519479 34.0024128 3.37573814 C27.94422285 3.38537846 21.88610768 3.38552643 15.82791519 3.37822151 C13.59858657 3.3771706 11.36925339 3.37956832 9.13993263 3.38558197 C6.10809648 3.39323361 3.07652298 3.38870277 0.04469299 3.38095093 C-0.84760826 3.38609449 -1.73990951 3.39123805 -2.6592502 3.39653748 C-8.73046907 3.36198393 -8.73046907 3.36198393 -10.95874023 1.13371277 C-7.57336317 -0.55897576 -3.72395177 -0.00649627 0 0 Z " fill="#66C1DC" transform="translate(144.958740234375,174.8662872314453)"/>
<path d="M0 0 C0.85482922 -0.00322445 1.70965844 -0.00644889 2.59039158 -0.00977105 C3.99188571 -0.00744815 3.99188571 -0.00744815 5.42169285 -0.00507832 C6.91610782 -0.00847665 6.91610782 -0.00847665 8.44071299 -0.01194364 C11.78859708 -0.01828822 15.13644073 -0.01745398 18.48433018 -0.01662922 C20.88071845 -0.0196204 23.27710624 -0.02302283 25.67349339 -0.02680683 C31.51268941 -0.03473506 37.35187591 -0.03786163 43.19107621 -0.03841921 C47.93683989 -0.03889435 52.68260023 -0.04094898 57.42836285 -0.04411983 C70.88176056 -0.0529258 84.33515029 -0.05753924 97.78855091 -0.05678936 C98.5138026 -0.0567494 99.23905429 -0.05670945 99.9862833 -0.05666828 C100.71241975 -0.0566274 101.43855619 -0.05658652 102.18669678 -0.0565444 C113.95862306 -0.05613782 125.73051738 -0.06571049 137.50243443 -0.07980665 C149.58807011 -0.09416438 161.67369019 -0.10107718 173.75933462 -0.10021287 C180.54521762 -0.09988072 187.33106709 -0.10263582 194.11694241 -0.11339092 C200.49692434 -0.12304911 206.87683533 -0.12316676 213.25681973 -0.11587429 C215.60099484 -0.11482565 217.94517432 -0.11720779 220.28934193 -0.12323475 C223.48417794 -0.13091811 226.6787667 -0.12633408 229.87359715 -0.11860371 C230.80569584 -0.12374727 231.73779454 -0.12889083 232.69813865 -0.13419026 C238.89715078 -0.10094235 242.80820727 0.33811496 247.48433018 4.73800945 C250.26972277 8.34509661 250.41967645 11.94795749 250.34004307 16.37863445 C250.34245502 17.15497234 250.34486698 17.93131023 250.34735203 18.73117352 C250.34637686 20.36501478 250.33306221 21.99889045 250.30806065 23.6325407 C250.27372869 26.12197287 250.28742121 28.60785421 250.30683994 31.09738445 C250.29994092 32.69114944 250.29026801 34.28490533 250.27754307 35.87863445 C250.28250294 36.61630047 250.28746281 37.35396648 250.29257298 38.11398602 C250.17230911 43.43695258 248.91065232 46.08262107 245.71113682 50.12863445 C245.05113682 49.79863445 244.39113682 49.46863445 243.71113682 49.12863445 C244.37113682 48.46863445 245.03113682 47.80863445 245.71113682 47.12863445 C248.45682 40.33210178 248.00588516 33.29672148 247.96113682 26.06613445 C247.96887119 24.81252117 247.97660557 23.55890789 247.98457432 22.26730633 C247.98199619 21.05494305 247.97941807 19.84257977 247.97676182 18.5934782 C247.97337803 16.94786907 247.97337803 16.94786907 247.96992588 15.26901531 C247.69279235 11.90602608 247.02932691 9.23227506 245.71113682 6.12863445 C243.31584013 4.80381899 243.31584013 4.80381899 240.71113682 4.12863445 C239.72113682 3.46863445 238.73113682 2.80863445 237.71113682 2.12863445 C235.75583615 1.82801214 235.75583615 1.82801214 233.59217358 1.87136555 C232.3285916 1.86169221 232.3285916 1.86169221 231.03948271 1.85182345 C230.1139133 1.85492065 229.18834388 1.85801786 228.23472691 1.86120892 C227.25155534 1.8566778 226.26838378 1.85214669 225.25541914 1.84747827 C221.94585209 1.8347716 218.63644828 1.83645868 215.32685947 1.83810711 C212.96017335 1.83212578 210.59348918 1.82532116 208.22680759 1.81775188 C202.45631477 1.8018856 196.68587186 1.79564176 190.91535832 1.79452713 C186.22534431 1.79357725 181.5353438 1.78946999 176.84533405 1.78312588 C163.55203562 1.76550984 150.25876949 1.75628756 136.9654593 1.75778683 C136.24860319 1.75786674 135.53174709 1.75794665 134.79316807 1.75802898 C134.07543796 1.75811075 133.35770786 1.75819251 132.61822836 1.75827675 C120.98522692 1.75908972 109.35235494 1.73995013 97.71939094 1.71175225 C85.77842154 1.68303588 73.8375153 1.66921127 61.89651048 1.6709398 C55.1910543 1.67160415 48.48573383 1.66609267 41.78030872 1.6445837 C35.47496107 1.62526572 29.16990055 1.62503282 22.86454296 1.63961697 C20.54777897 1.64171416 18.23099731 1.63695039 15.91426373 1.62489605 C12.75633954 1.60952666 9.59941569 1.61869722 6.44151402 1.63415813 C5.52040604 1.62387101 4.59929807 1.61358388 3.65027773 1.60298502 C-0.53060245 1.64835297 -2.70667641 1.76005988 -6.31290531 4.04311466 C-13.10417965 11.21094818 -12.90724258 19.85233723 -12.78886318 29.25363445 C-12.80433193 30.48984539 -12.81980068 31.72605633 -12.83573818 32.9997282 C-12.80609872 39.89831217 -12.46821666 44.53957842 -8.28886318 50.12863445 C-10.54532493 49.22604975 -11.99028238 48.55519719 -13.40067959 46.54025555 C-14.64885343 43.15117879 -14.61387037 39.85869813 -14.62480068 36.29269695 C-14.63145748 35.53572521 -14.63811428 34.77875347 -14.6449728 33.99884319 C-14.65507917 32.40020451 -14.65979044 30.8015238 -14.65946865 29.2028532 C-14.66383643 26.76854493 -14.70015862 24.33605903 -14.73808193 21.90207195 C-14.74395183 20.34478645 -14.74792007 18.78749238 -14.74980068 17.23019695 C-14.76417171 16.50813061 -14.77854275 15.78606426 -14.79334927 15.04211712 C-14.73840132 8.90404518 -12.5413059 5.38107717 -8.28886318 1.12863445 C-5.49295692 0.19970962 -2.93270595 0.00280314 0 0 Z " fill="#67BAD7" transform="translate(140.28886318206787,192.87136554718018)"/>
<path d="M0 0 C44.55 0 89.1 0 135 0 C135 0.66 135 1.32 135 2 C133.99558774 2.00634791 133.99558774 2.00634791 132.97088432 2.01282406 C116.67056166 2.11617227 100.37028375 2.22481624 84.07003593 2.33933926 C76.18733046 2.39459449 68.30462046 2.44806371 60.421875 2.49731445 C53.55050527 2.54025075 46.67916782 2.58655231 39.8078481 2.63687855 C36.17025795 2.66340354 32.53267388 2.68825442 28.89504623 2.70907402 C24.8321635 2.73239063 20.76937083 2.76322102 16.70654297 2.79467773 C14.90148033 2.80331093 14.90148033 2.80331093 13.05995178 2.81211853 C11.94944962 2.82190735 10.83894745 2.83169617 9.6947937 2.84178162 C8.25403127 2.85146044 8.25403127 2.85146044 6.78416252 2.8613348 C3.79485926 3.01021703 0.94076488 3.45489367 -2 4 C-1.34 2.68 -0.68 1.36 0 0 Z " fill="#50B9DF" transform="translate(135,330)"/>
<path d="M0 0 C0.94348917 -0.00256327 1.88697833 -0.00512655 2.85905808 -0.0077675 C6.02219433 -0.01271099 9.18485385 0.00379714 12.34794617 0.02018738 C14.6146646 0.02103353 16.88138385 0.02055875 19.14810181 0.01885986 C25.30470601 0.01799801 31.46113539 0.03565468 37.61769891 0.05658174 C44.05057407 0.0753168 50.48345309 0.07709648 56.91635132 0.08065796 C67.71454764 0.08892727 78.51267217 0.10767461 89.31083679 0.13444519 C100.4322528 0.16198848 111.55365137 0.18322073 122.6750946 0.19596863 C123.70363765 0.19715088 123.70363765 0.19715088 124.75295935 0.19835702 C128.19294245 0.20227218 131.63292568 0.20606329 135.072909 0.20979273 C163.6043287 0.24088538 192.13568082 0.29394157 220.66703796 0.36076355 C220.66703796 0.69076355 220.66703796 1.02076355 220.66703796 1.36076355 C219.5008279 1.3640737 218.33461784 1.36738384 217.13306808 1.3707943 C189.46064584 1.44978165 161.78827196 1.53899001 134.11592393 1.64081516 C130.71124997 1.6533343 127.30657571 1.66576703 123.90190125 1.67814636 C123.22408093 1.68061236 122.54626062 1.68307835 121.8479003 1.68561907 C110.86722082 1.725362 99.88653103 1.75810254 88.90582153 1.78826337 C77.6418082 1.81935791 66.37783887 1.85810713 55.11387277 1.90355361 C48.78572805 1.92884203 42.45761446 1.9506164 36.12943268 1.96410751 C30.17709883 1.97690657 24.22487161 1.99893769 18.27259636 2.02814674 C16.0844354 2.0372394 13.89625726 2.04291667 11.70807838 2.04497719 C8.72721481 2.04828779 5.74665575 2.06373272 2.76585388 2.08229065 C1.45846304 2.07938855 1.45846304 2.07938855 0.12466025 2.07642782 C-0.67403474 2.08389331 -1.47272973 2.0913588 -2.29562759 2.09905052 C-3.32770745 2.102468 -3.32770745 2.102468 -4.38063741 2.10595453 C-6.6799175 2.40604669 -8.27941672 3.3165258 -10.33296204 4.36076355 C-12.58296204 3.98576355 -12.58296204 3.98576355 -14.33296204 3.36076355 C-9.67449684 -0.23014603 -5.62503104 -0.0558349 0 0 Z " fill="#66C8E8" transform="translate(145.3329620361328,123.63923645019531)"/>
<path d="M0 0 C3.76854223 1.25618074 4.07958456 2.66014706 6 6 C8.58439794 7.29219897 10.4328216 7.12295998 13.32766724 7.12025452 C15.02303619 7.12231651 15.02303619 7.12231651 16.75265503 7.12442017 C17.99846344 7.12082489 19.24427185 7.11722961 20.52783203 7.11352539 C22.48873779 7.11374443 22.48873779 7.11374443 24.48925781 7.1139679 C28.07994761 7.1142555 31.6706042 7.10836466 35.26128626 7.10139394 C39.01158131 7.09515433 42.76187707 7.09455612 46.51217651 7.09336853 C53.61656032 7.09025701 60.72092878 7.08204603 67.82530582 7.07201904 C75.91225789 7.06085235 83.99921067 7.05534605 92.08616853 7.05032361 C108.72412134 7.03986327 125.36205871 7.02226728 142 7 C142 6.34 142 5.68 142 5 C145.465 4.505 145.465 4.505 149 4 C148 7 148 7 145 9 C142.47680187 9.26564884 142.47680187 9.26564884 139.40263367 9.28761292 C138.23761322 9.30047836 137.07259277 9.31334381 135.87226868 9.32659912 C134.59272812 9.33040588 133.31318756 9.33421265 131.99487305 9.33813477 C130.63471866 9.34902976 129.27457029 9.36070145 127.91442871 9.37309265 C124.21805306 9.40360719 120.52173969 9.42061813 116.82526374 9.43330884 C114.51539968 9.44139337 112.20555353 9.45157392 109.89570045 9.46232414 C102.66727996 9.49504545 95.43890291 9.51894501 88.2104184 9.531138 C79.86862814 9.54539257 71.52768398 9.58926293 63.18617409 9.65863949 C56.73680438 9.71042793 50.28767522 9.7353117 43.83810073 9.73996013 C39.98668073 9.74335787 36.13611627 9.75820674 32.28491783 9.80124092 C28.6607015 9.84102946 25.03793647 9.84738332 21.41356659 9.82834053 C19.45369853 9.82647354 17.49389292 9.85926676 15.53431702 9.89315796 C7.12286436 9.80346554 7.12286436 9.80346554 3.8429966 7.45655632 C0 3.14892468 0 3.14892468 0 0 Z " fill="#4BAACA" transform="translate(127,374)"/>
<path d="M0 0 C4.19174829 5.58899772 3.52183681 10.82612093 3.50097656 17.53417969 C3.50000887 19.72986972 3.54154057 21.92200604 3.5859375 24.1171875 C3.65086774 32.02650267 3.23825504 37.66767903 -2 44 C-2.66 43.67 -3.32 43.34 -4 43 C-3.34 42.34 -2.68 41.68 -2 41 C-1.59952556 38.67724823 -1.2602896 36.34260643 -1 34 C-0.67 34 -0.34 34 0 34 C0 22.78 0 11.56 0 0 Z " fill="#96DDEE" transform="translate(374,268)"/>
<path d="M0 0 C3.43481623 2.28987749 3.86605205 3.13636287 5 7 C5.25878906 10.3815918 5.25878906 10.3815918 5.265625 14.19921875 C5.26753845 14.87547806 5.2694519 15.55173737 5.27142334 16.24848938 C5.27277813 17.66965103 5.26913124 19.09082535 5.26074219 20.51196289 C5.24998174 22.6911978 5.26068641 24.8696178 5.2734375 27.04882812 C5.27211676 28.43229349 5.26955614 29.81575834 5.265625 31.19921875 C5.26336914 32.45565186 5.26111328 33.71208496 5.25878906 35.0065918 C5 38 5 38 3 40 C3 28.78 3 17.56 3 6 C2.34 6 1.68 6 1 6 C0.67 4.02 0.34 2.04 0 0 Z " fill="#8AD4E7" transform="translate(275,334)"/>
<path d="M0 0 C1.33332095 2.6666419 0.67102033 4.16680303 0 7 C-0.66 7 -1.32 7 -2 7 C-1.86061293 11.37523025 -1.71235541 15.75011678 -1.5625 20.125 C-1.52318359 21.3625 -1.48386719 22.6 -1.44335938 23.875 C-1.40146484 25.07382812 -1.35957031 26.27265625 -1.31640625 27.5078125 C-1.27974854 28.60754395 -1.24309082 29.70727539 -1.20532227 30.84033203 C-1.00316521 33.95129116 -0.56710106 36.93644338 0 40 C1.32 40.33 2.64 40.66 4 41 C3.34 42.32 2.68 43.64 2 45 C-2.93988752 40.21946369 -2.93988752 40.21946369 -3.16113281 35.73120117 C-3.18131918 34.33519947 -3.19485783 32.93909192 -3.203125 31.54296875 C-3.20882507 30.80299149 -3.21452515 30.06301422 -3.22039795 29.3006134 C-3.22985018 27.73289419 -3.23638282 26.16515509 -3.24023438 24.59741211 C-3.24992032 22.20716293 -3.28093195 19.81778095 -3.3125 17.42773438 C-3.31903223 15.90365093 -3.32428184 14.37956135 -3.328125 12.85546875 C-3.3404718 12.14384079 -3.3528186 11.43221283 -3.36553955 10.69902039 C-3.3458602 6.28017974 -2.62533638 3.56499885 0 0 Z " fill="#64C2E0" transform="translate(129,266)"/>
<path d="M0 0 C1.47308269 2.94616538 1.00294692 5.47762594 0.87890625 8.7578125 C0.85529526 9.42086395 0.83168427 10.08391541 0.80735779 10.76705933 C0.73073184 12.88659129 0.64670357 15.00575685 0.5625 17.125 C0.50927819 18.56117994 0.4565378 19.9973778 0.40429688 21.43359375 C0.27511856 24.95595436 0.1392997 28.47802352 0 32 C0.66 32 1.32 32 2 32 C2 33.65 2 35.3 2 37 C2.66 37 3.32 37 4 37 C4 37.99 4 38.98 4 40 C5.32 40.33 6.64 40.66 8 41 C7.67 41.99 7.34 42.98 7 44 C2.73734476 42.47762313 1.1399595 39.8884934 -1 36 C-1.34852849 33.123961 -1.49424439 30.6533182 -1.42578125 27.79296875 C-1.42249313 27.02696854 -1.41920502 26.26096832 -1.41581726 25.47175598 C-1.40544688 23.86397717 -1.38558311 22.25623425 -1.35668945 20.64868164 C-1.31232386 18.17768984 -1.29520588 15.70767029 -1.28320312 13.23632812 C-1.26979006 11.67186084 -1.25487014 10.10740558 -1.23828125 8.54296875 C-1.23089432 7.80137009 -1.22350739 7.05977142 -1.21589661 6.29570007 C-1.11835673 1.11835673 -1.11835673 1.11835673 0 0 Z " fill="#66C4E3" transform="translate(127,132)"/>
<path d="M0 0 C1.2187375 3.79537631 1.11338128 7.42791621 1.09765625 11.390625 C1.09553383 12.44754547 1.09553383 12.44754547 1.09336853 13.52581787 C1.08778933 15.76725584 1.07524073 18.00859243 1.0625 20.25 C1.05748231 21.77343605 1.05291987 23.29687368 1.04882812 24.8203125 C1.03782674 28.54690772 1.02057646 32.27344396 1 36 C1.99 36 2.98 36 4 36 C5.485 39.465 5.485 39.465 7 43 C5.0625 42.25 5.0625 42.25 3 41 C2.63837971 39.67405895 2.30271961 38.34061543 2 37 C1.01 36.67 0.02 36.34 -1 36 C-1.02472039 31.35522856 -1.04286968 26.71049543 -1.05493164 22.06567383 C-1.05996014 20.48558892 -1.06678378 18.90550866 -1.07543945 17.32543945 C-1.08756992 15.05418754 -1.09324313 12.78299715 -1.09765625 10.51171875 C-1.10281754 9.80536789 -1.10797882 9.09901703 -1.11329651 8.3712616 C-1.11364803 5.29745609 -0.9803186 2.9409558 0 0 Z " fill="#179FCD" transform="translate(128,338)"/>
<path d="M0 0 C0.33 0 0.66 0 1 0 C1.09941096 4.0200263 1.17172063 8.03956963 1.21972656 12.06054688 C1.23975319 13.42623368 1.26698332 14.79183569 1.30175781 16.15722656 C1.35066432 18.12787102 1.37091347 20.09915983 1.390625 22.0703125 C1.41157227 23.25383301 1.43251953 24.43735352 1.45410156 25.65673828 C0.91074238 29.65714726 -0.56227421 31.83264348 -3 35 C-3.66 34.67 -4.32 34.34 -5 34 C-4.34 33.34 -3.68 32.68 -3 32 C-0.50165157 25.52047045 -0.56265828 18.93939397 -0.375 12.0625 C-0.33632813 10.90169922 -0.29765625 9.74089844 -0.2578125 8.54492188 C-0.16404613 5.69676831 -0.07834083 2.84861262 0 0 Z " fill="#2DA2CA" transform="translate(389,208)"/>
<path d="M0 0 C-0.39832031 0.42410156 -0.79664063 0.84820312 -1.20703125 1.28515625 C-4.85862461 5.32767445 -7.12157254 8.88650302 -9 14 C-10.60685189 9.98287028 -9.43257376 6.93957783 -8 3 C-5.75407293 -0.31541616 -3.86995532 -0.31378016 0 0 Z " fill="#4FB7D9" transform="translate(137,194)"/>
<path d="M0 0 C1.32 0 2.64 0 4 0 C3.34 1.65 2.68 3.3 2 5 C1.01 5 0.02 5 -1 5 C-0.95875 6.11375 -0.9175 7.2275 -0.875 8.375 C-1 12 -1 12 -3 14 C-3.28999065 5.44527596 -3.28999065 5.44527596 -1 1 C-0.67 0.67 -0.34 0.34 0 0 Z " fill="#199ECB" transform="translate(130,128)"/>
<path d="M0 0 C-1.546875 2.015625 -1.546875 2.015625 -4 4 C-7.453125 4.171875 -7.453125 4.171875 -11.25 3.75 C-12.51328125 3.62109375 -13.7765625 3.4921875 -15.078125 3.359375 C-16.04234375 3.24078125 -17.0065625 3.1221875 -18 3 C-18 2.67 -18 2.34 -18 2 C-14.37 2 -10.74 2 -7 2 C-7 1.34 -7 0.68 -7 0 C-3.98968256 -0.93423645 -3.13349732 -1.04449911 0 0 Z " fill="#54BBDB" transform="translate(276,379)"/>
<path d="M0 0 C0.33 0 0.66 0 1 0 C1 1.65 1 3.3 1 5 C1.66 5 2.32 5 3 5 C3 5.99 3 6.98 3 8 C4.32 8.33 5.64 8.66 7 9 C6.67 9.99 6.34 10.98 6 12 C3.53199953 10.84826645 1.95216435 9.95216435 0 8 C-0.26991906 5.31160615 -0.08737357 2.70858064 0 0 Z " fill="#52BAD9" transform="translate(128,164)"/>
<path d="M0 0 C2 3.75 2 3.75 2 6 C3.32 6.33 4.64 6.66 6 7 C5.34 8.32 4.68 9.64 4 11 C2 9.4375 2 9.4375 0 7 C-0.25 3.25 -0.25 3.25 0 0 Z " fill="#43B1D5" transform="translate(127,300)"/>
<path d="M0 0 C0.33 0 0.66 0 1 0 C1.43177893 6.26079448 0.92739438 9.09075703 -3 14 C-3.66 13.67 -4.32 13.34 -5 13 C-4.34 12.34 -3.68 11.68 -3 11 C-2.65458149 8.66842508 -2.32205743 6.33491639 -2 4 C-0.9375 1.5625 -0.9375 1.5625 0 0 Z " fill="#71C9E4" transform="translate(375,298)"/>
<path d="M0 0 C0.5775 0.226875 1.155 0.45375 1.75 0.6875 C-1.3184847 3.66300031 -2.71236331 4.65224513 -7.0625 4.9375 C-8.114375 4.855 -9.16625 4.7725 -10.25 4.6875 C-9.6725 4.419375 -9.095 4.15125 -8.5 3.875 C-6.18836756 2.75737129 -6.18836756 2.75737129 -4.25 1 C-2.25 -0.3125 -2.25 -0.3125 0 0 Z " fill="#19A1CF" transform="translate(371.25,308.3125)"/>
<path d="M0 0 C2.5 2.0625 2.5 2.0625 5 5 C5.3125 8.8125 5.3125 8.8125 5 12 C3.20931427 9.3139714 2.33944209 7.3373411 1.375 4.3125 C1.11460937 3.50425781 0.85421875 2.69601563 0.5859375 1.86328125 C0.39257812 1.24839844 0.19921875 0.63351563 0 0 Z " fill="#78CAE0" transform="translate(385,196)"/>
<path d="M0 0 C0.66 0 1.32 0 2 0 C1.5205537 4.21912747 0.83374881 6.79663178 -2 10 C-2.66 9.67 -3.32 9.34 -4 9 C-3.34 8.34 -2.68 7.68 -2 7 C-1.28072705 4.68234271 -0.6090107 2.34904126 0 0 Z " fill="#71C9E3" transform="translate(388,233)"/>
<path d="M0 0 C1.98 0 3.96 0 6 0 C6.66 1.65 7.32 3.3 8 5 C4.62496331 3.8141763 2.35277269 2.72426311 0 0 Z " fill="#46B3D7" transform="translate(378,194)"/>
<path d="M0 0 C1.8125 1.5625 1.8125 1.5625 3 3 C2.67 3.66 2.34 4.32 2 5 C1.2575 4.54625 0.515 4.0925 -0.25 3.625 C-2.46930578 2.31359204 -4.67967822 1.11719197 -7 0 C-4.26634878 -1.36682561 -2.89333621 -0.84683011 0 0 Z " fill="#7DCCE5" transform="translate(371,126)"/>
<path d="M0 0 C1.32 0 2.64 0 4 0 C3.34 1.65 2.68 3.3 2 5 C0.68 4.67 -0.64 4.34 -2 4 C-1.34 2.68 -0.68 1.36 0 0 Z " fill="#35B3D7" transform="translate(130,128)"/>
<path d="M0 0 C2.88575819 0.39803561 3.82189513 0.79009069 5.75 3.0625 C6.1625 3.701875 6.575 4.34125 7 5 C6.67 5.66 6.34 6.32 6 7 C5.67 6.01 5.34 5.02 5 4 C3.68 4 2.36 4 1 4 C0.67 2.68 0.34 1.36 0 0 Z " fill="#1AA0CC" transform="translate(368,128)"/>
</svg>
